<svg width="100%" height="100%" viewBox="0 0 2000 1594" fill="none" xmlns="http://www.w3.org/2000/svg">
<path d="M1615.04 898.776L1411.54 695.224V1208.73L1026.58 1593.88L769.922 1337.14V566.814L641.617 695.224V1208.73L331.805 898.776H0L128.306 770.41H384.961L513.267 898.776V642.044L898.272 256.857V1283.92L1026.58 1412.33V128.491L1154.88 256.901V813.492L1219.06 749.331V930.878L1154.88 995.039V1283.92L1283.23 1155.55V385.267L1668.19 770.41H2000L1871.69 898.776H1615.04ZM769.922 128.491V294.472L898.272 166.106V0.125L769.922 128.491Z" fill="#84C041"/>
<path d="M1026.58 1412.33V1503.08L834.097 1310.51V408.418L577.442 668.634V1051.48L358.383 834.615H64.1749L128.306 770.41H384.961L513.311 898.776V642.044L898.272 256.901V1283.96L1026.58 1412.33ZM1154.93 995.039L1090.8 1059.16V1438.83L1347.36 1182.14V540.224L1641.62 834.615H1935.83L2000 770.41H1668.19L1283.23 385.267V1155.55L1154.93 1283.96V995.039ZM1090.75 192.696V968.449L1219.06 840.083V749.331L1154.93 813.492V256.901L1090.75 192.696ZM769.922 211.481L898.272 83.1154V0.125L769.922 128.491V211.481Z" fill="#ECF955"/>
</svg>
