<svg width="597" height="598" viewBox="0 0 597 598" fill="none" xmlns="http://www.w3.org/2000/svg">
<path d="M575 440.5C584.6 470.9 593.667 519.166 597 539.5V598H0V530C1 525.167 3.3 514.3 4.5 509.5C5.7 504.7 7.33333 486.167 8 477.5C12.5 461.5 22.8 425.9 28 411.5C33.2 397.1 46.5 375.833 52.5 367C57.1667 363.333 68.5 355.1 76.5 351.5C84.5 347.9 100.167 340.333 107 337L168.5 317C179.833 313 203.2 304.7 206 303.5C208.8 302.3 212.167 302.333 213.5 302.5C214.333 301.167 216.3 298.1 217.5 296.5C218.7 294.9 222.333 291.833 224 290.5L221.5 249.5C220 245.667 216.6 237 215 233C213.4 229 209.667 216.667 208 211H201.5C197 211 191.5 208 191 202.5C190.5 197 183 190 183 183C183 176 184 171.5 184.5 167C185 162.5 181.5 155.5 181.5 151.5C181.5 147.5 186.5 143 189 143C191 143 196.167 144.333 198.5 145C197.667 140.167 195.8 129.9 195 127.5C194 124.5 192.5 115 192.5 110C192.5 106 190.167 96 189 91.5L186.5 76.5C186.167 73.5 185.7 66.8 186.5 64C187.3 61.2 189.5 58.8333 190.5 58C190.333 56.1667 190.5 51.6 192.5 48C195 43.5 208 25 213.5 18C219 11 234.5 4 237.5 2.5C240.5 1 252 0.999566 260 0.999566C268 0.999566 267.5 0.499566 279.5 0.999566C291.5 1.49957 310.5 6.49957 315.5 7.49957C320.5 8.49957 335.5 13.9997 338.5 13.4997C341.5 12.9997 345.5 13.9997 350.5 15.4997C354.5 16.6997 358.833 19.6664 360.5 20.9997C361.833 24.9997 365.5 33.4997 369.5 35.4997C373.5 37.4997 375.5 40.6664 376 41.9997V54.9997C377.167 60.4997 379.5 73.6997 379.5 82.4997C379.5 91.2998 376.167 121.833 374.5 136C375.333 136.333 377.3 136 380.5 134C383.7 132 384.5 130.5 388.5 130.5C399.5 132 398.4 154.7 398 165.5C397.5 179 392.5 200 380 199C375.199 198.616 371 198.166 369.5 197.5C369.333 201.5 368.7 211 367.5 217C366.3 223 365.333 234.166 365 239L363 286C364.167 286 367.7 286.4 372.5 288C377.3 289.6 380.167 299 381 303.5C395.167 309.166 431.5 322.6 463.5 331C495.5 339.4 519 343.5 542.5 363C565.5 396 565.4 410.1 575 440.5Z" fill="#0D0D0D"/>
</svg>
