<svg version="1.0" xmlns="http://www.w3.org/2000/svg"
 width="100%" height="100%" viewBox="0 0 124.000000 43.000000"
 preserveAspectRatio="xMidYMid meet">

<g transform="translate(0.000000,43.000000) scale(0.100000,-0.100000)"
fill="currentColor" stroke="none">
<path d="M650 399 c-45 -24 -79 -33 -178 -44 -68 -8 -142 -20 -165 -26 -67
-18 -166 -66 -219 -107 -70 -52 -88 -86 -88 -161 l0 -61 64 0 c80 0 115 25
133 93 11 39 18 47 53 61 22 9 55 16 74 16 18 0 63 15 100 35 84 43 132 46
166 9 28 -28 60 -26 96 7 70 65 300 4 474 -128 40 -29 74 -52 76 -50 6 5 -20
75 -44 123 -44 87 -207 208 -293 219 -17 3 -44 11 -60 19 -18 9 -29 11 -29 4
0 -6 -8 -4 -18 5 -20 18 -57 23 -47 7 3 -5 2 -10 -4 -10 -5 0 -13 5 -16 10 -8
13 -12 13 -75 -21z m166 -58 c-9 -14 -33 -14 -41 -1 -4 6 -1 18 6 26 11 13 14
13 27 0 8 -8 11 -19 8 -25z m48 10 c3 -5 -1 -14 -8 -20 -16 -13 -32 2 -21 19
8 12 22 13 29 1z m44 -23 c-6 -18 -28 -21 -28 -4 0 9 7 16 16 16 9 0 14 -5 12
-12z m-763 -183 c30 -30 31 -54 4 -89 -24 -31 -72 -35 -101 -9 -28 25 -24 77
8 102 35 27 59 26 89 -4z"/>
</g>
</svg>
