<svg version="1.0" xmlns="http://www.w3.org/2000/svg"
 width="100%" height="100%" viewBox="0 0 285.000000 34.000000"
 preserveAspectRatio="xMidYMid meet">
<g transform="translate(0.000000,34.000000) scale(0.100000,-0.100000)"
fill="currentColor" stroke="none">
<path d="M1070 320 c-36 -20 -70 -26 -70 -12 0 4 -198 7 -441 7 -400 0 -441
-2 -450 -17 -5 -9 -32 -30 -59 -47 -46 -28 -50 -34 -49 -68 0 -33 6 -43 50
-76 27 -20 49 -44 49 -52 0 -12 66 -14 450 -12 442 2 449 2 452 -18 2 -11 11
-21 21 -23 14 -3 17 4 17 32 0 34 2 36 33 36 26 0 36 -6 45 -25 l12 -25 634 0
634 0 216 102 c119 56 216 105 216 108 0 3 -168 20 -372 38 -299 26 -422 33
-621 32 -228 0 -251 2 -287 20 -35 18 -58 20 -242 20 -181 -1 -207 -3 -238
-20z m80 -20 c0 -23 -25 -27 -33 -6 -7 16 1 26 20 26 7 0 13 -9 13 -20z m285
0 c0 -12 -20 -16 -109 -18 -106 -3 -136 4 -121 27 4 8 44 11 118 9 92 -2 112
-6 112 -18z m61 9 c10 -17 -13 -36 -27 -22 -12 12 -4 33 11 33 5 0 12 -5 16
-11z m554 -79 c0 -20 -7 -20 -369 -20 -358 0 -393 3 -376 30 4 6 140 10 376
10 362 0 369 0 369 -20z"/>
</g>
</svg>
